<?xml version="1.0" standalone="no"?>
<!DOCTYPE svg PUBLIC "-//W3C//DTD SVG 20010904//EN"
 "http://www.w3.org/TR/2001/REC-SVG-20010904/DTD/svg10.dtd">
<svg version="1.0" xmlns="http://www.w3.org/2000/svg"
 width="1280.000000pt" height="874.000000pt" viewBox="0 0 1280.000000 874.000000"
 preserveAspectRatio="xMidYMid meet">
<metadata>
Created by potrace 1.15, written by Peter Selinger 2001-2017
</metadata>
<g transform="translate(0.000000,874.000000) scale(0.100000,-0.100000)"
fill="#000000" stroke="none">
<path d="M3926 8730 c-352 -40 -531 -125 -1026 -484 -220 -160 -313 -239 -405
-343 -231 -264 -345 -542 -345 -846 l0 -98 -67 -77 c-38 -42 -111 -120 -163
-173 -105 -105 -159 -138 -275 -165 -200 -46 -236 -57 -310 -93 -108 -54 -270
-161 -445 -294 -371 -283 -469 -351 -620 -427 -52 -26 -131 -60 -175 -76 -44
-15 -83 -33 -87 -38 -14 -21 -8 -92 17 -181 14 -49 25 -99 25 -111 0 -14 36
-56 101 -120 389 -381 713 -831 801 -1114 20 -65 23 -96 23 -225 -1 -179 -11
-233 -121 -617 -102 -360 -118 -446 -119 -638 0 -176 7 -202 82 -326 82 -136
96 -176 91 -265 l-5 -79 85 -60 c199 -141 346 -167 451 -80 l23 20 -26 21
c-36 28 -34 69 9 149 99 183 108 207 219 607 38 137 111 322 122 310 5 -5 -21
-157 -46 -267 -21 -97 -58 -225 -137 -480 -81 -263 -133 -518 -133 -654 0 -56
0 -57 46 -86 63 -39 192 -68 348 -76 106 -6 133 -11 148 -26 24 -24 23 -69 -4
-146 -27 -78 -21 -91 57 -115 56 -16 95 -41 95 -58 0 -4 -11 -21 -25 -37 -30
-36 -31 -46 -5 -72 18 -18 28 -19 89 -14 63 6 69 5 75 -13 4 -11 2 -32 -4 -47
-16 -43 -13 -46 48 -46 100 0 200 -33 366 -120 152 -79 268 -120 343 -120 31
0 34 -2 27 -22 -3 -13 -13 -35 -20 -50 -8 -15 -14 -40 -14 -57 0 -32 0 -32
135 -46 33 -4 159 -26 280 -50 121 -24 261 -49 310 -56 108 -14 254 -6 345 19
l65 17 96 -32 c162 -56 343 -73 552 -54 l78 7 54 -39 c121 -85 251 -117 478
-117 168 0 301 17 614 77 223 43 215 44 211 -51 -3 -56 -2 -60 22 -67 38 -11
512 -10 800 1 1320 51 2509 285 4025 791 l380 127 -68 1 c-99 1 -243 -31 -424
-95 -445 -157 -548 -178 -696 -139 -57 15 -163 63 -155 70 2 2 67 9 143 15
391 31 794 135 1070 278 91 47 41 41 -280 -33 -104 -24 -230 -51 -279 -60
-109 -19 -291 -21 -366 -4 l-55 13 73 12 c156 27 300 72 697 219 432 159 588
185 976 161 188 -12 232 -2 300 64 48 46 61 70 37 70 -56 0 -275 -27 -483 -60
-272 -43 -422 -60 -521 -60 l-64 0 16 25 c8 13 13 28 10 33 -3 5 -32 12 -65
16 -38 4 -64 13 -75 25 -17 18 -15 20 54 35 39 9 247 45 463 81 216 35 435 74
487 86 104 23 152 43 85 35 -105 -14 -429 -28 -503 -22 -87 6 -152 27 -152 47
0 23 68 75 121 94 46 16 99 19 359 25 287 7 367 15 394 40 17 16 -74 30 -246
39 -165 9 -250 24 -250 46 0 17 81 35 232 51 80 8 172 22 205 30 61 16 145 58
145 73 0 5 -26 12 -57 15 -88 11 -248 51 -463 116 -107 32 -211 63 -230 69
-31 8 -32 9 -9 10 15 1 66 21 115 46 66 34 99 45 133 45 65 0 72 -7 58 -57 -9
-33 -8 -45 3 -58 13 -16 32 -17 170 -12 157 5 273 26 337 61 26 14 12 16 -177
14 -185 -2 -208 -1 -240 17 l-35 19 61 18 c57 17 105 51 91 64 -3 4 -83 6
-177 5 -187 -2 -227 7 -248 54 -13 29 -20 26 128 50 160 26 263 62 324 114 17
15 17 16 -10 21 -63 12 -182 -13 -359 -72 -159 -54 -190 -61 -260 -62 -68 0
-89 4 -140 28 l-60 28 170 39 c216 49 431 108 565 154 115 40 370 160 410 194
30 24 25 30 -58 61 -105 40 -222 53 -412 46 -462 -16 -580 -18 -580 -9 0 25
216 75 514 118 253 36 348 57 456 98 l65 25 -220 -5 c-225 -6 -436 6 -550 31
-58 12 -53 13 150 18 228 6 303 18 435 69 77 29 151 81 137 95 -4 4 -63 8
-130 8 -98 0 -156 -6 -292 -33 -202 -40 -300 -40 -375 -1 l-45 23 35 15 c41
17 123 28 310 41 147 10 208 27 240 69 11 14 18 27 16 29 -2 2 -45 0 -96 -6
-113 -13 -259 -1 -415 34 -60 14 -154 29 -208 35 -54 5 -107 15 -117 20 -34
18 -42 46 -25 86 l15 36 39 -35 c51 -46 130 -74 245 -88 159 -19 358 14 427
70 l23 18 -25 16 c-50 33 -112 38 -227 20 -124 -20 -285 -24 -302 -7 -16 16
81 37 289 64 189 23 263 41 335 77 44 22 48 27 31 34 -34 13 -206 10 -285 -5
-41 -8 -122 -26 -180 -40 -195 -46 -277 -44 -362 10 -31 20 -38 28 -27 34 22
12 181 45 464 95 335 59 448 85 603 137 l127 43 -75 3 c-99 4 -226 -11 -440
-53 -310 -61 -409 -75 -537 -75 -67 0 -124 4 -127 8 -2 4 32 14 77 21 122 19
275 57 426 107 137 45 368 139 386 157 14 13 -101 1 -217 -23 -117 -25 -208
-26 -256 -2 l-37 17 45 2 c86 5 159 24 264 68 125 52 138 55 283 58 117 3 140
10 111 31 -60 44 -311 45 -512 2 -117 -26 -236 -34 -236 -17 0 20 30 30 95 33
69 3 70 3 73 32 2 16 -1 33 -6 38 -15 15 -204 11 -319 -7 -189 -28 -307 -15
-352 38 -12 15 -9 19 32 37 24 11 79 25 121 32 82 12 130 9 396 -31 203 -31
277 -26 390 28 l55 26 -195 5 c-107 3 -206 11 -220 17 -14 6 -36 23 -49 37
l-24 26 54 0 c73 1 135 16 188 47 44 26 45 26 20 36 -13 6 -80 9 -149 9 -136
-2 -176 6 -209 42 l-22 23 46 5 c53 6 75 22 75 53 0 20 -7 24 -42 30 -72 11
-103 24 -134 56 l-29 31 0 136 0 137 -97 -3 c-105 -3 -138 6 -138 38 0 32 53
57 152 69 103 13 139 28 156 66 7 14 12 27 12 29 0 2 -35 -5 -77 -16 -120 -29
-240 -34 -283 -11 -19 10 -36 25 -38 34 -5 27 44 39 159 39 103 0 111 1 134
25 35 34 32 53 -11 61 -47 9 -163 -2 -234 -21 -93 -25 -170 -29 -213 -12 -73
31 -47 44 113 58 117 10 174 28 194 61 20 32 9 34 -204 28 -106 -3 -130 -1
-160 15 -35 18 -35 18 -10 27 13 5 36 6 50 3 14 -3 62 -6 105 -7 70 0 81 2 97
22 39 48 28 55 -97 68 -63 7 -188 29 -277 49 -208 47 -352 52 -462 15 -37 -13
-70 -21 -73 -19 -2 3 15 19 38 38 40 31 41 34 37 80 -4 38 -13 57 -46 95 -37
41 -42 53 -42 94 l0 48 -132 75 c-339 192 -777 390 -1263 572 -297 111 -581
209 -1380 474 -418 138 -839 280 -935 315 -374 136 -376 137 -396 170 -9 17
-54 83 -100 146 -103 144 -132 203 -153 306 l-16 81 -205 -79 c-201 -77 -393
-139 -478 -153 -37 -6 -46 -3 -73 20 -48 39 -142 84 -228 107 -64 18 -121 22
-371 28 -289 8 -297 8 -410 40 -97 27 -136 32 -250 35 -74 2 -171 0 -214 -5z
m602 -385 c51 -47 55 -54 42 -70 -19 -23 -56 -16 -150 26 -41 18 -76 34 -78
35 -2 1 4 16 13 34 33 64 85 57 173 -25z m-268 -79 c393 -143 696 -354 1044
-725 83 -89 86 -94 70 -112 -27 -30 -46 -23 -104 36 -59 59 -103 81 -140 67
-21 -8 -6 -20 143 -118 91 -60 212 -138 269 -174 237 -148 410 -304 494 -446
43 -73 42 -89 -8 -72 -42 15 -83 60 -153 168 -34 52 -81 117 -105 143 -41 46
-116 95 -128 83 -10 -11 81 -179 142 -261 66 -89 124 -160 237 -285 89 -99
223 -269 244 -310 11 -21 20 -27 35 -23 32 9 33 21 6 68 -25 42 -34 85 -18 85
17 0 75 -43 116 -86 56 -58 103 -147 162 -305 99 -268 175 -385 281 -435 35
-16 43 -26 54 -64 29 -107 104 -230 140 -230 11 0 12 -7 -11 80 -45 164 -102
281 -155 316 -18 11 -37 15 -65 11 -37 -5 -41 -3 -46 21 -3 15 -21 68 -40 117
-25 64 -35 102 -32 130 l3 40 81 -80 c101 -102 146 -170 285 -435 61 -118 135
-251 164 -296 64 -98 159 -202 225 -244 l50 -32 0 -99 c0 -54 -4 -99 -9 -99
-16 0 -48 48 -67 101 -18 48 -75 112 -81 92 -5 -14 48 -154 101 -268 50 -106
151 -263 215 -333 36 -39 42 -42 62 -32 21 12 20 13 -25 54 -33 30 -46 51 -46
69 0 15 4 27 9 27 15 0 116 -114 160 -182 85 -128 173 -332 246 -573 20 -65
38 -121 41 -124 2 -3 18 12 35 32 22 27 38 37 60 37 16 0 29 -5 29 -11 0 -6
23 -65 51 -131 72 -172 75 -252 14 -310 -47 -44 -25 -92 74 -164 73 -53 101
-94 101 -149 0 -34 2 -37 14 -25 32 33 28 62 -19 154 -35 69 -45 99 -45 137 0
27 3 49 8 49 4 0 32 -20 62 -45 76 -63 163 -105 217 -105 l43 0 0 -59 c0 -90
27 -284 55 -394 42 -163 167 -490 202 -529 19 -21 47 -23 93 -7 27 10 38 9 65
-5 30 -17 31 -20 28 -69 -2 -34 5 -84 21 -142 23 -89 23 -90 4 -93 -11 -2 -33
2 -49 8 -34 14 -65 85 -55 125 9 34 0 32 -24 -7 -23 -39 -26 -88 -6 -126 8
-15 42 -61 75 -102 34 -41 65 -88 70 -105 8 -32 33 -36 60 -10 12 12 12 23 2
70 -7 31 -11 58 -9 61 8 7 128 -107 157 -150 49 -71 74 -157 75 -254 l1 -86
-54 -38 c-30 -21 -128 -67 -225 -104 -302 -119 -361 -170 -400 -347 -6 -24
-10 -26 -34 -21 -43 11 -83 33 -133 74 -25 21 -61 47 -80 59 l-34 21 -1 97
c-1 116 -12 157 -88 313 -71 149 -88 211 -84 325 l3 91 -43 72 c-23 39 -60 92
-82 117 -34 39 -40 53 -40 91 0 65 -25 177 -60 269 -40 102 -103 221 -240 449
-109 181 -179 328 -180 377 0 14 9 35 20 46 20 22 20 22 -20 117 -63 150 -139
303 -280 561 -326 595 -419 806 -505 1139 -29 108 -29 108 -47 86 -13 -16 -18
-39 -18 -81 0 -32 -3 -59 -7 -59 -15 0 -102 75 -139 120 -77 94 -106 213 -70
295 12 27 10 37 -21 105 -19 41 -53 104 -76 140 -55 87 -232 262 -333 330
l-82 55 -32 95 c-35 103 -83 204 -138 290 -44 70 -162 191 -222 230 l-47 30
-6 69 c-8 93 -25 122 -120 211 -168 156 -309 333 -382 480 -26 51 -34 58 -107
95 -77 38 -81 43 -113 106 -68 133 -133 205 -370 404 -93 79 -195 168 -225
199 l-54 56 31 0 c26 0 40 -10 79 -54 59 -69 84 -78 84 -31 0 82 -37 109 -195
145 -83 19 -105 28 -132 55 -20 20 -33 43 -33 59 0 32 0 32 80 2z m645 -2 c23
-15 50 -72 40 -82 -11 -11 -164 -13 -184 -3 -40 22 -22 84 29 104 23 9 89 -2
115 -19z m-1703 -139 c6 -28 1 -35 -23 -35 -25 0 -49 27 -49 57 0 23 -3 25
-32 20 -18 -3 -54 -13 -80 -23 -53 -21 -66 -15 -50 20 7 16 25 29 53 37 23 7
46 21 52 30 10 16 17 13 68 -32 32 -27 59 -60 61 -74z m1936 13 c263 -137 420
-242 568 -381 50 -47 110 -111 133 -141 24 -31 51 -56 60 -56 31 0 162 -49
225 -84 145 -81 259 -201 466 -490 197 -276 326 -405 479 -480 l64 -31 150
-225 c266 -398 496 -719 482 -670 -16 53 -94 209 -150 300 -89 145 -171 253
-391 516 -212 254 -289 352 -283 358 8 8 104 -31 149 -59 64 -41 145 -120 285
-280 141 -161 262 -281 321 -318 l42 -26 -5 -64 c-4 -43 0 -82 11 -121 15 -51
30 -71 125 -170 113 -116 135 -148 146 -209 8 -42 8 -42 -31 -22 -16 8 -41 15
-56 15 l-26 0 15 -57 c32 -123 118 -264 207 -337 24 -20 47 -36 50 -36 13 0
-91 231 -131 293 -16 24 -16 29 -3 37 62 40 152 -57 180 -193 14 -72 42 -104
134 -160 83 -51 105 -78 114 -142 7 -47 8 -48 54 -60 73 -18 148 -82 235 -201
43 -59 113 -154 156 -211 43 -58 77 -106 75 -108 -15 -12 -51 -25 -70 -25 -39
0 -67 35 -123 154 -47 101 -88 156 -116 156 -14 0 -10 -63 6 -109 20 -57 69
-128 170 -246 114 -132 182 -234 203 -306 9 -32 20 -59 24 -59 4 0 12 9 18 21
15 27 -3 106 -36 168 -13 24 -24 45 -24 47 0 9 57 -19 92 -45 86 -63 155 -177
273 -451 72 -166 163 -350 194 -390 18 -23 22 -24 53 -12 66 24 64 26 213
-211 360 -572 478 -732 702 -955 134 -135 161 -166 154 -181 -5 -9 -44 -55
-85 -101 -42 -45 -81 -99 -88 -119 l-12 -36 -18 95 c-52 263 -182 537 -329
693 -97 102 -85 35 19 -111 85 -118 110 -168 119 -228 l6 -47 -32 19 c-47 27
-151 130 -197 194 -62 84 -102 155 -232 407 -128 247 -193 351 -266 422 -49
48 -60 44 -54 -20 2 -28 14 -42 76 -89 95 -72 123 -115 212 -325 155 -367 208
-464 310 -565 36 -36 91 -79 123 -95 63 -33 66 -37 92 -170 21 -105 42 -168
66 -199 l21 -26 -23 -36 c-14 -24 -64 -63 -150 -120 -127 -84 -160 -115 -180
-174 -9 -25 -15 -29 -33 -24 -42 12 -56 41 -56 118 0 96 -29 154 -205 416
-183 272 -228 372 -241 529 -7 94 4 129 46 137 45 9 41 50 -10 109 -41 47 -50
71 -47 115 2 22 -2 25 -28 25 -25 0 -32 -5 -41 -33 -5 -18 -18 -40 -27 -49
-33 -34 -57 -5 -181 223 -378 694 -668 1202 -869 1524 -283 453 -602 891 -859
1180 -78 88 -85 100 -92 149 -4 30 -23 94 -42 142 -19 49 -34 97 -34 108 0 11
-32 52 -73 93 -39 40 -119 133 -176 207 -57 73 -128 158 -159 188 -92 93 -217
162 -321 179 -36 6 -43 12 -90 89 -65 107 -162 209 -368 388 -220 191 -322
314 -374 450 -24 62 -48 80 -334 250 -249 147 -360 237 -441 357 -37 54 -57
90 -49 90 3 0 67 -32 143 -72z m-1318 41 c32 -12 66 -18 82 -15 23 5 28 2 28
-14 0 -11 9 -29 21 -41 20 -20 20 -22 3 -40 -31 -34 -66 -24 -137 40 -36 32
-71 61 -78 63 -15 5 -3 28 14 28 7 0 37 -9 67 -21z m-226 -61 c9 -13 16 -44
16 -73 1 -92 14 -131 59 -177 95 -97 171 -237 301 -558 105 -258 164 -379 236
-482 51 -73 54 -81 54 -137 0 -33 7 -113 15 -178 36 -274 121 -495 258 -664
l47 -59 0 -90 c0 -123 22 -219 87 -385 88 -221 104 -275 110 -359 l6 -79 -36
7 c-23 4 -37 3 -37 -3 0 -6 23 -91 50 -188 60 -211 175 -673 259 -1043 64
-281 103 -462 261 -1215 155 -737 334 -1530 349 -1547 9 -10 3 119 -10 217
-14 108 -41 241 -95 475 -79 338 -110 505 -129 703 l-7 68 39 -20 c21 -10 58
-40 82 -66 84 -91 114 -195 131 -457 25 -369 35 -423 134 -762 26 -88 49 -192
53 -232 3 -41 9 -74 13 -74 16 0 53 109 58 170 5 82 -20 190 -86 371 -97 263
-117 359 -172 844 -67 588 -79 643 -265 1245 -124 402 -155 506 -195 670 -34
141 -72 341 -66 348 5 4 12 -11 83 -183 242 -586 469 -1510 544 -2215 12 -110
14 -118 55 -181 86 -131 126 -261 194 -634 45 -250 80 -399 110 -473 23 -57
24 -47 9 125 -24 300 -90 630 -220 1104 -228 833 -298 1128 -324 1354 l-5 50
21 -55 c136 -357 287 -872 540 -1840 83 -316 171 -649 195 -739 25 -90 44
-165 42 -166 -2 -2 -23 1 -48 6 -25 4 -136 8 -248 8 -188 -1 -206 1 -247 21
-45 22 -76 56 -89 98 -7 20 -13 13 -56 -57 -67 -112 -135 -194 -252 -306 -112
-107 -124 -111 -190 -64 -65 47 -85 171 -54 332 15 77 20 85 41 67 25 -21 33
-42 45 -116 6 -38 18 -80 27 -93 15 -23 16 -23 26 -5 16 28 21 257 8 344 -7
41 -41 194 -76 340 -104 426 -110 474 -74 657 29 151 24 196 -47 373 l-58 145
2 168 c3 192 3 192 -118 702 -96 405 -154 671 -185 845 -22 126 -25 170 -23
340 l2 195 -41 115 c-22 63 -58 156 -79 205 -38 89 -39 91 -41 235 -4 199 -26
280 -213 785 -94 252 -134 406 -146 557 -4 46 -13 94 -21 108 -8 14 -44 46
-79 72 -53 40 -65 55 -74 90 -50 206 -187 554 -368 933 -55 116 -114 244 -131
286 -36 92 -64 196 -56 209 3 6 24 10 45 10 29 0 43 -6 54 -22z m642 -114
c110 -54 205 -152 401 -414 166 -221 212 -276 298 -347 l49 -42 -17 -53 c-41
-134 -33 -178 48 -258 53 -53 55 -53 75 -35 30 27 25 42 -27 78 -73 50 -83 63
-83 107 0 22 4 40 10 40 21 0 120 -136 195 -267 89 -157 124 -211 174 -266
l34 -38 -21 -21 c-27 -28 -40 -17 -80 65 -63 133 -84 106 -43 -56 l29 -112
151 -80 c84 -44 173 -96 199 -115 l47 -35 7 -84 c12 -145 59 -267 183 -471 98
-161 191 -370 165 -370 -18 0 -122 112 -162 174 -46 72 -99 180 -163 337 -58
142 -137 311 -142 305 -7 -7 89 -288 152 -446 84 -208 167 -383 419 -889 247
-493 304 -615 397 -841 38 -91 68 -158 69 -150 0 21 -35 164 -58 235 -45 137
-106 280 -254 590 -104 217 -164 352 -194 438 l-14 38 36 15 c41 17 69 11 85
-17 5 -11 16 -60 23 -109 13 -87 16 -93 136 -297 118 -200 275 -446 337 -527
30 -39 30 -40 15 -75 -21 -49 -20 -154 2 -221 10 -30 60 -143 111 -250 116
-243 145 -334 145 -452 l0 -51 -26 24 c-40 38 -71 107 -110 250 -55 206 -90
275 -154 313 l-32 18 7 -23 c96 -317 387 -1195 685 -2069 89 -261 187 -551
218 -643 l57 -168 3 63 c8 155 -50 362 -196 703 -49 116 -106 254 -126 307
-44 119 -86 282 -74 286 17 7 87 -47 116 -90 46 -67 49 -76 107 -277 61 -212
79 -254 135 -315 l39 -43 16 -172 c17 -197 35 -270 77 -314 l29 -32 -6 95
c-18 249 -76 439 -270 880 -122 278 -216 532 -201 547 9 9 87 -55 129 -106 62
-75 131 -231 197 -445 98 -317 159 -439 265 -532 49 -44 50 -45 49 -102 -1
-31 -11 -94 -23 -139 -12 -45 -21 -112 -21 -151 0 -104 8 -110 184 -141 59
-11 96 -33 96 -57 0 -19 -53 -39 -183 -70 -237 -56 -289 -76 -383 -145 -35
-26 -64 -60 -90 -105 -51 -87 -80 -109 -147 -109 -78 1 -89 7 -75 46 19 55 3
164 -46 314 l-45 140 -4 175 c-4 203 -17 250 -81 289 -20 13 -36 24 -36 25 0
12 -79 393 -105 508 -40 172 -112 430 -161 569 -33 95 -54 135 -178 337 -75
122 -107 224 -156 487 -22 121 -49 254 -60 295 -28 100 -90 227 -144 293 -41
51 -44 58 -65 182 -64 386 -182 694 -462 1205 -55 102 -162 306 -236 455 -146
291 -205 400 -291 540 -69 111 -180 263 -239 326 -43 46 -44 50 -53 136 -18
176 -48 234 -257 498 -39 50 -88 120 -108 158 -46 83 -40 97 44 97 31 0 62 4
70 9 26 17 -104 169 -372 435 l-262 258 71 -4 c57 -4 88 -13 150 -44z m-1199
-26 c48 -29 100 -94 138 -173 68 -141 107 -327 150 -725 9 -80 31 -248 50
-375 59 -400 90 -768 120 -1430 8 -187 20 -434 25 -550 46 -1004 31 -1617 -51
-2160 l-20 -131 26 -56 c35 -78 53 -175 65 -368 6 -91 15 -224 20 -297 9 -119
7 -140 -11 -215 -24 -98 -37 -116 -72 -101 l-24 11 17 -36 c25 -53 56 -188 75
-332 38 -287 58 -390 74 -390 5 0 20 9 34 20 18 14 30 40 42 89 34 138 72 109
61 -46 -7 -90 -6 -93 18 -118 19 -19 36 -25 66 -25 55 0 43 -14 -30 -34 -116
-33 -188 4 -307 157 -138 178 -202 215 -313 183 -33 -9 -62 -16 -66 -16 -3 0
-4 43 -2 95 2 52 0 95 -4 95 -6 0 -11 -13 -58 -142 -30 -82 -59 -102 -135 -95
-129 13 -222 62 -381 202 -138 122 -241 185 -324 197 -22 3 -24 6 -21 65 2 55
-1 64 -26 92 -17 19 -57 42 -103 60 -60 23 -74 33 -72 47 2 11 26 95 54 188
272 921 456 1847 527 2656 6 69 12 139 14 155 2 17 7 -19 11 -80 21 -267 -32
-887 -129 -1510 -47 -297 -179 -1040 -231 -1290 -12 -57 7 -18 52 111 266 750
367 1567 419 3369 34 1202 49 1565 80 1983 17 227 43 494 49 499 7 7 46 -69
68 -130 29 -86 33 -230 13 -467 -13 -156 -18 -406 -25 -1255 -8 -938 -15
-1242 -35 -1500 -12 -140 -37 -372 -51 -465 -31 -203 -32 -190 20 -249 25 -28
46 -60 46 -71 0 -11 -20 -49 -44 -86 -98 -145 -138 -326 -155 -699 -12 -253
-26 -410 -42 -485 -6 -25 -28 -118 -50 -207 -67 -274 -84 -454 -59 -628 20
-133 21 -136 104 -178 41 -21 95 -56 119 -78 25 -21 50 -39 55 -39 17 0 59 57
73 97 8 26 10 73 5 158 -6 105 -2 158 28 401 172 1364 236 2449 207 3514 -10
356 -62 1730 -74 1923 -13 218 83 -325 117 -663 32 -309 39 -536 41 -1300 l2
-776 42 -79 c48 -91 48 -93 -6 -217 -42 -98 -45 -154 -14 -354 19 -126 19
-142 5 -395 -8 -145 -23 -394 -34 -554 -36 -532 -49 -748 -60 -995 -11 -255
-17 -600 -12 -600 8 0 44 47 61 80 53 100 59 186 71 1115 12 975 32 1332 93
1677 13 69 12 89 -3 180 -55 321 -81 737 -95 1528 -13 728 -43 1148 -106 1515
-19 110 -25 126 -70 197 -156 245 -205 427 -138 512 23 29 40 28 96 -6z m881
-205 c151 -232 237 -392 308 -576 53 -135 124 -427 104 -427 -13 0 -152 222
-210 337 -76 149 -161 366 -235 598 -32 99 -60 186 -62 193 -13 34 13 0 95
-125z m-497 44 c44 -29 102 -143 131 -257 27 -109 31 -114 70 -94 29 15 32 15
50 -3 10 -11 27 -55 38 -99 10 -43 53 -178 95 -299 122 -352 147 -490 104
-593 -20 -49 -20 -53 -5 -120 9 -38 39 -130 67 -203 96 -253 113 -333 97 -457
-6 -54 -6 -78 3 -88 15 -18 34 -18 53 2 14 14 18 12 36 -18 57 -93 77 -222 90
-573 15 -443 38 -617 200 -1515 116 -648 157 -952 166 -1250 5 -159 3 -208
-16 -345 -39 -277 -29 -409 37 -524 25 -43 25 -43 72 -37 158 21 145 22 176
-18 24 -31 27 -42 19 -64 -9 -25 -13 -27 -65 -24 -74 4 -89 -13 -99 -113 -11
-116 4 -284 46 -486 20 -101 38 -185 40 -187 1 -2 11 1 21 6 10 6 27 35 36 66
10 30 25 62 33 71 22 22 71 20 79 -4 6 -21 73 -85 95 -93 20 -6 4 -26 -41 -48
-21 -11 -39 -25 -39 -30 0 -5 21 -10 48 -12 l47 -3 -31 -17 c-87 -47 -172 -27
-362 86 -70 41 -158 90 -197 108 -64 29 -79 32 -170 33 -91 0 -105 -3 -155
-29 -30 -15 -64 -36 -74 -45 -18 -16 -19 -14 -13 42 9 88 56 178 132 253 l64
63 -45 17 c-50 19 -68 44 -79 112 -8 51 0 64 67 98 33 17 50 32 54 51 10 37
-3 1259 -16 1538 -57 1268 -170 2242 -376 3235 -78 376 -235 1005 -209 835 3
-16 12 -93 20 -170 30 -258 107 -758 185 -1202 27 -149 51 -253 75 -319 43
-119 46 -177 10 -235 -47 -73 -49 -87 -55 -314 -4 -193 -7 -216 -18 -190 -17
38 -48 259 -107 760 -148 1266 -231 1712 -411 2217 -23 64 -25 80 -14 93 21
25 36 2 76 -118 52 -158 76 -209 114 -240 18 -15 34 -26 36 -24 7 6 -95 321
-140 433 -54 135 -75 178 -133 268 -24 37 -43 70 -41 72 9 8 55 23 74 23 12 1
36 -9 55 -22z m765 -18 c83 -40 197 -191 253 -336 l21 -53 -23 0 c-32 1 -107
37 -140 68 -16 15 -60 80 -98 145 -39 64 -85 133 -104 151 -22 22 -30 36 -22
40 27 11 73 5 113 -15z m2117 -1 c12 -6 50 -33 85 -60 47 -36 72 -48 98 -48
19 0 34 -4 34 -9 0 -15 -60 -61 -81 -61 -10 0 -50 29 -89 64 -38 36 -86 70
-107 77 l-37 12 23 18 c27 22 44 24 74 7z m377 -305 c81 -38 130 -81 269 -237
165 -185 260 -243 420 -253 l85 -6 -37 -31 c-20 -17 -39 -42 -42 -56 -6 -24 0
-29 77 -68 127 -65 226 -145 429 -348 173 -173 187 -184 202 -169 11 10 17 33
17 61 0 24 4 44 8 44 17 0 75 -49 132 -112 33 -37 70 -70 80 -73 11 -4 20 -13
20 -21 0 -16 -26 -19 -35 -4 -12 20 -45 10 -51 -15 -18 -73 57 -153 223 -238
l112 -57 52 -98 c193 -356 480 -721 773 -981 81 -72 106 -101 106 -120 0 -13
12 -44 26 -69 17 -29 25 -54 22 -73 -3 -16 -4 -29 -2 -29 1 0 18 7 37 15 20 8
56 15 80 15 l43 0 66 -147 c78 -174 78 -176 87 -265 l6 -69 75 -25 c108 -37
196 -89 265 -158 81 -81 109 -140 110 -233 1 -72 1 -73 41 -102 21 -16 57 -48
79 -71 68 -72 113 -100 160 -100 38 0 44 -3 50 -27 15 -61 83 -197 180 -358
112 -186 169 -293 195 -370 22 -64 75 -95 161 -95 46 0 59 -3 62 -17 24 -88
25 -189 2 -233 -23 -45 -71 -72 -118 -66 -56 6 -85 39 -110 123 -20 68 -25 76
-80 120 -69 54 -149 152 -260 318 -140 210 -217 298 -339 388 -21 15 -38 33
-38 41 0 8 -22 58 -50 113 -50 100 -125 204 -319 442 -129 160 -192 260 -236
379 -28 73 -39 90 -67 106 -18 10 -64 40 -103 66 -38 26 -89 57 -112 69 -38
19 -68 59 -287 389 -330 497 -452 653 -635 808 -75 65 -102 110 -118 199 -8
43 -83 116 -193 187 -132 85 -168 115 -189 157 -11 20 -31 58 -45 85 -14 27
-26 59 -26 70 0 15 -22 36 -73 70 -391 267 -763 590 -1130 984 l-59 62 -64 0
c-70 0 -139 23 -154 51 -6 10 -10 30 -10 45 l0 27 83 -5 c66 -3 96 -11 147
-35z m306 -152 c64 -30 177 -128 207 -180 22 -38 14 -39 -38 -4 -32 21 -216
167 -259 205 -22 19 33 6 90 -21z m495 -69 c20 -15 64 -51 98 -79 34 -29 73
-56 86 -59 32 -8 32 -22 0 -30 -42 -11 -68 3 -160 81 -49 42 -97 81 -107 86
-10 6 -16 14 -13 20 11 17 60 8 96 -19z m-4816 -101 c8 -16 19 -70 25 -120 6
-50 15 -101 21 -114 16 -36 -11 -80 -75 -123 -30 -20 -59 -48 -64 -62 -6 -15
-13 -112 -15 -217 -5 -187 -14 -269 -62 -555 -42 -255 -56 -371 -62 -544 -5
-126 -3 -167 5 -162 20 12 41 105 57 246 8 74 15 144 16 155 0 17 2 17 11 -5
16 -36 16 -349 -1 -440 -19 -112 -65 -301 -110 -457 -111 -386 -115 -403 -211
-1110 -149 -1090 -164 -1186 -190 -1223 -26 -37 -68 -123 -86 -176 -61 -179
-59 -423 5 -554 22 -45 21 -46 -21 -24 -47 24 -74 12 -93 -43 -28 -80 -49
-117 -77 -133 -25 -14 -28 -13 -43 5 -82 105 -113 274 -84 455 19 122 69 310
114 433 135 363 318 1322 530 2770 76 520 69 487 145 733 84 276 87 295 61
398 -11 47 -21 107 -21 133 0 68 31 187 94 365 60 168 91 276 102 351 3 26 8
47 10 47 2 0 10 -13 19 -29z m2053 -296 c75 -82 143 -238 142 -325 -1 -24 -1
-24 -14 6 -8 18 -46 80 -86 139 -70 104 -130 217 -130 243 0 21 32 -2 88 -63z
m-214 -125 c24 -37 81 -218 71 -228 -7 -7 -52 32 -73 63 -33 48 -59 205 -33
205 4 0 20 -18 35 -40z m3871 -89 c232 -56 475 -194 515 -292 11 -25 11 -38 1
-66 -15 -41 -22 -33 84 -92 39 -22 82 -52 97 -68 28 -29 54 -103 37 -103 -13
0 -173 122 -414 314 -110 89 -249 196 -310 239 -60 44 -112 81 -114 83 -9 8
27 3 104 -15z m-3889 -236 c148 -283 248 -575 454 -1330 28 -104 69 -245 90
-313 21 -67 34 -125 29 -128 -16 -9 -85 15 -106 38 -47 52 -63 104 -93 298
-26 171 -37 210 -117 400 -81 192 -111 285 -120 373 -5 59 -12 78 -51 135
-115 173 -183 368 -217 625 -8 65 -15 126 -15 135 0 23 71 -89 146 -233z
m-2111 4 c-104 -999 -309 -1878 -574 -2469 -45 -100 -53 -127 -61 -212 -21
-215 -74 -411 -197 -723 -217 -552 -247 -667 -247 -971 l-1 -191 -40 9 c-65
14 -128 51 -158 94 -19 27 -38 81 -61 177 -19 75 -45 159 -59 186 l-26 49 76
-24 c41 -14 84 -29 94 -35 23 -12 15 -34 79 216 151 588 265 970 381 1274 46
120 83 195 160 324 140 234 172 330 259 772 70 352 128 553 205 704 l27 53
-13 102 c-19 160 1 286 96 586 26 80 51 167 57 193 18 86 19 43 3 -114z m2626
-160 c547 -841 992 -1828 1273 -2819 67 -239 128 -481 123 -487 -7 -7 -86 98
-127 167 -20 36 -53 106 -73 155 -36 90 -47 127 -152 498 -79 280 -146 429
-244 539 l-44 49 7 59 c7 63 -6 161 -28 220 -8 19 -46 89 -85 154 -84 142 -92
163 -98 285 l-6 95 -55 65 c-134 158 -269 411 -421 791 -49 124 -97 243 -106
265 -21 50 -16 45 36 -36z m-2854 -186 c15 -23 18 -48 17 -153 -1 -221 -34
-350 -168 -669 -83 -197 -135 -343 -155 -436 -6 -27 -22 -133 -36 -235 -39
-289 -57 -339 -285 -787 -265 -521 -415 -875 -450 -1062 -12 -62 -30 -137 -41
-166 -19 -52 -70 -114 -110 -136 -21 -11 -21 -9 -14 53 24 225 87 526 165 783
94 308 191 549 457 1135 197 434 277 622 351 825 99 273 177 554 217 778 10
53 21 97 26 97 5 0 17 -12 26 -27z m7159 -160 c19 -20 34 -41 34 -45 0 -15 39
-8 49 9 5 10 11 16 13 13 2 -3 27 -37 56 -76 99 -136 212 -230 517 -434 253
-169 435 -311 435 -341 0 -14 -45 -29 -88 -29 l-36 0 100 -102 c55 -57 210
-229 344 -382 134 -154 292 -330 350 -390 106 -109 108 -112 140 -206 54 -162
97 -222 175 -247 l30 -10 -35 -21 c-89 -55 -147 -17 -281 183 -89 135 -158
209 -213 230 -34 13 -53 33 -113 118 -142 201 -303 378 -763 842 -256 259
-506 517 -556 575 -125 145 -265 330 -258 341 3 5 19 9 36 9 22 0 39 -10 64
-37z m-7766 -99 c0 -8 -76 -119 -151 -219 -92 -123 -180 -232 -413 -510 l-200
-237 56 -49 c63 -55 83 -98 72 -153 -7 -41 -10 -42 -44 -20 -123 82 -172 195
-137 315 36 120 160 275 311 386 66 49 70 54 101 136 61 164 141 268 240 313
63 29 165 53 165 38z m-515 -106 c15 -13 28 -38 31 -58 5 -33 4 -36 -29 -48
-55 -20 -144 -82 -257 -181 -157 -137 -252 -188 -387 -206 -48 -6 -52 -5 -58
17 -4 13 -24 46 -45 73 -63 85 -74 116 -71 196 1 24 9 19 87 -62 66 -67 91
-100 103 -137 l17 -50 75 57 c107 79 225 180 363 310 66 61 125 111 132 111 7
0 25 -10 39 -22z m9912 -73 c28 -30 56 -55 62 -55 19 0 12 -19 -14 -36 -32
-21 -80 -6 -122 39 -32 34 -57 92 -47 109 15 23 70 -3 121 -57z m-1757 -323
c240 -243 393 -421 363 -423 -71 -4 -126 23 -211 104 -71 69 -140 168 -188
272 -31 68 -36 72 -93 99 -73 33 -101 68 -101 125 0 23 3 41 8 41 4 0 104 -98
222 -218z m-7741 126 c-45 -90 -130 -207 -226 -313 -135 -147 -193 -203 -193
-184 0 25 56 129 105 194 53 71 312 345 326 345 5 0 0 -19 -12 -42z m3572
-109 c43 -68 66 -148 95 -333 37 -244 40 -253 172 -531 158 -333 182 -404 188
-560 l4 -100 -50 100 c-135 271 -274 662 -370 1043 -34 132 -100 429 -100 449
0 13 31 -22 61 -68z m5765 -48 c72 -49 147 -94 166 -100 l35 -12 -18 -36 c-11
-21 -19 -57 -19 -81 l0 -43 -45 32 c-25 18 -69 58 -98 89 -115 123 -217 239
-217 245 0 23 81 -16 196 -94z m-9976 -69 c0 -8 -31 -47 -69 -88 -54 -56 -71
-82 -78 -115 l-8 -42 -33 28 c-57 47 -42 79 86 180 39 31 72 62 72 67 0 6 6 5
15 -2 8 -7 15 -19 15 -28z m655 -153 c-9 -27 -51 -100 -92 -162 -42 -61 -96
-141 -120 -177 -24 -36 -46 -75 -49 -88 -4 -14 -13 -22 -23 -20 -30 6 -24 47
18 113 46 73 51 108 19 142 l-22 24 110 107 c61 59 124 130 140 157 l29 50 3
-48 c2 -27 -4 -71 -13 -98z m215 -31 c-12 -81 -30 -138 -79 -243 -39 -83 -183
-319 -203 -331 -20 -13 0 115 29 180 15 33 54 108 87 166 77 137 142 276 152
326 l8 39 7 -35 c4 -19 4 -65 -1 -102z m9903 102 l97 0 0 -27 c0 -14 7 -34 15
-43 15 -16 13 -20 -17 -45 -36 -31 -115 -68 -167 -80 l-33 -7 27 46 c14 25 25
56 23 68 -3 20 -11 24 -58 31 -133 20 -124 17 -108 34 19 18 75 33 103 27 11
-2 64 -4 118 -4z m-7963 -93 c13 -66 41 -300 36 -305 -3 -2 -14 -1 -25 3 -41
13 -51 53 -51 208 0 79 3 147 6 150 13 13 23 -4 34 -56z m7547 -177 c16 -12
41 -20 64 -20 l38 0 3 -165 c2 -91 1 -165 -2 -165 -3 0 -21 46 -39 103 -39
118 -83 212 -107 225 -10 6 -15 16 -11 26 8 21 23 20 54 -4z m-3490 -181 c57
-21 84 -64 107 -171 6 -26 5 -27 -26 -21 -78 14 -131 56 -154 120 -22 63 -19
83 15 83 16 0 42 -5 58 -11z m-2735 -86 c9 -10 21 -35 28 -57 9 -28 21 -42 41
-50 27 -10 29 -14 29 -66 1 -172 49 -372 195 -805 128 -382 165 -503 190 -623
16 -82 16 -84 -4 -128 -31 -65 -35 -117 -16 -223 10 -58 13 -110 9 -135 -9
-55 -12 -47 -78 219 -30 121 -78 306 -106 410 -110 405 -173 648 -220 842 -52
212 -130 581 -130 614 0 25 41 26 62 2z m-3904 -93 l109 -55 6 -65 c4 -36 9
-87 13 -115 3 -28 1 -62 -5 -79 l-12 -29 -25 24 c-31 29 -106 141 -127 189 -8
19 -31 70 -51 113 -20 43 -32 77 -26 75 5 -1 58 -28 118 -58z m3056 -305 c108
-650 153 -1400 143 -2394 -7 -590 -10 -642 -40 -612 -5 5 -16 132 -23 283 -8
150 -25 491 -39 758 -69 1342 -90 1772 -99 2090 l-6 175 20 -75 c10 -41 30
-142 44 -225z m3941 -64 c103 -88 226 -253 327 -441 57 -106 232 -480 224
-480 -9 0 -305 396 -385 515 -82 123 -216 374 -237 445 -8 28 -6 27 71 -39z
m-6740 -7 c14 -13 25 -32 25 -42 0 -28 -25 -84 -66 -148 -19 -30 -43 -74 -53
-97 l-18 -42 -22 35 c-31 49 -24 102 29 226 47 111 54 115 105 68z m5672 -198
c16 -14 29 -49 42 -108 10 -47 25 -100 34 -116 27 -56 -20 -59 -69 -5 -45 49
-74 129 -74 204 0 58 1 60 23 54 12 -4 32 -17 44 -29z m499 -472 c49 -77 101
-254 73 -254 -5 0 -9 4 -9 8 0 5 -21 35 -46 68 -61 77 -92 145 -98 218 l-6 59
26 -24 c15 -13 42 -47 60 -75z m4442 -126 c-32 -49 -156 -86 -252 -74 -31 4
-56 11 -56 15 0 27 178 78 279 80 43 1 43 1 29 -21z m-4780 -264 c50 -42 84
-99 107 -174 20 -71 37 -253 27 -309 l-7 -42 -34 23 c-49 33 -70 82 -81 184
-5 49 -14 131 -19 183 -6 53 -19 110 -29 132 -11 22 -16 39 -13 39 4 0 26 -16
49 -36z m5392 -9 c0 -29 -77 -93 -132 -110 -61 -18 -215 -34 -337 -35 l-85 0
33 34 c37 38 35 51 -12 71 l-30 13 23 12 c34 18 147 27 358 29 156 1 182 -1
182 -14z m-6257 -129 c46 -93 80 -214 117 -409 17 -88 30 -161 30 -164 0 -14
-44 35 -65 72 -35 61 -61 154 -95 335 -28 147 -42 208 -65 275 -14 42 42 -37
78 -109z m5612 -26 c9 -14 -12 -48 -37 -61 -12 -7 -61 -14 -110 -17 -83 -4
-88 -4 -88 15 0 26 31 53 72 63 48 12 156 12 163 0z m-10661 -123 c0 -47 -8
-80 -33 -137 -19 -41 -44 -106 -56 -145 -21 -64 -24 -67 -30 -42 -14 52 1 132
50 270 53 151 71 165 69 54z m5333 -151 c154 -306 278 -707 373 -1206 51 -273
59 -314 56 -317 -4 -4 -186 457 -244 617 -82 225 -160 472 -212 674 -45 174
-100 423 -100 450 0 15 71 -106 127 -218z m1355 -201 c67 -103 97 -168 119
-253 19 -76 25 -152 12 -152 -12 0 -78 107 -112 180 -17 36 -57 135 -90 220
-32 85 -62 164 -67 175 -12 31 88 -92 138 -170z m-767 149 c37 -15 48 -62 46
-203 -1 -74 -3 -137 -6 -139 -6 -7 -44 59 -56 98 -6 19 -13 83 -16 143 -6 109
-4 115 32 101z m4625 -134 c0 -46 -28 -79 -82 -95 -28 -8 -61 -15 -73 -15 -11
0 -44 -6 -73 -14 -29 -7 -52 -10 -52 -6 0 10 73 75 102 91 22 12 155 58 171
59 4 0 7 -9 7 -20z m485 -259 l40 -7 -33 -31 c-50 -49 -108 -63 -287 -73 -174
-10 -225 -21 -544 -119 -91 -28 -166 -49 -168 -47 -2 2 24 19 59 39 227 126
432 202 623 232 90 15 250 18 310 6z m-4434 -376 c30 -64 64 -183 55 -192 -13
-13 -82 25 -103 56 -32 47 -42 91 -49 206 l-5 100 36 -55 c21 -30 50 -82 66
-115z m3719 -56 c-63 -50 -158 -83 -274 -95 l-69 -7 22 32 c41 57 137 89 266
90 l80 1 -25 -21z m-4789 -356 c39 -63 73 -175 104 -348 13 -77 29 -155 35
-174 16 -58 3 -47 -35 29 -84 167 -138 335 -151 468 -8 87 3 93 47 25z m3349
-352 c0 -15 -58 -60 -112 -87 -47 -24 -255 -104 -270 -104 -18 0 -6 29 26 66
43 49 125 99 196 118 62 17 160 21 160 7z m-3360 -338 c12 -23 28 -65 35 -93
13 -49 13 -50 -10 -50 -34 0 -73 36 -85 78 -5 20 -10 65 -10 100 l0 64 24 -29
c13 -16 34 -47 46 -70z m263 -53 c31 -45 15 -131 -24 -130 -46 1 -69 54 -69
160 l0 80 38 -43 c21 -23 46 -53 55 -67z m3087 65 c0 -14 -219 -70 -431 -110
-283 -53 -334 -66 -575 -139 -237 -72 -328 -95 -416 -105 -66 -8 -89 -7 -77 2
8 7 355 127 469 162 158 50 360 101 510 130 195 37 520 75 520 60z m-1435
-100 c25 -30 54 -55 63 -55 34 -1 -53 -67 -96 -75 -70 -11 -151 20 -124 47 10
10 17 10 32 0 29 -18 47 -15 64 10 21 30 20 64 -2 86 -20 20 -18 42 3 42 7 0
34 -25 60 -55z m-1465 -80 c5 -14 7 -67 3 -120 l-6 -95 -99 0 c-108 0 -112 3
-83 60 11 21 27 32 58 40 23 6 48 13 55 15 22 8 26 38 10 82 l-16 43 34 0 c28
0 36 -5 44 -25z m2559 -30 c-3 -2 -63 -29 -133 -60 -251 -107 -424 -152 -626
-161 l-135 -6 35 23 c105 67 250 108 571 163 257 44 296 50 288 41z m-5929
-56 c110 -11 172 -7 233 16 25 10 22 -25 -5 -60 -42 -54 -116 -67 -233 -41
-59 13 -246 66 -254 73 -17 13 66 33 114 27 17 -2 82 -8 145 -15z m2995 -103
c37 -16 55 -42 55 -80 0 -18 -5 -24 -19 -23 -10 0 -37 -5 -61 -13 -29 -10 -47
-11 -58 -4 -19 11 -47 64 -57 107 l-7 27 56 0 c31 0 72 -6 91 -14z m1606 -166
c-13 -11 -47 -27 -75 -35 -59 -17 -216 -35 -216 -24 0 11 28 37 52 50 30 16
102 27 188 27 l75 1 -24 -19z"/>
<path d="M6303 6133 c10 -11 42 -69 71 -129 59 -121 92 -160 125 -149 28 9 27
18 -15 105 -55 117 -99 163 -174 185 -24 7 -25 7 -7 -12z"/>
<path d="M7586 4058 c18 -60 53 -117 98 -163 l51 -50 3 30 c6 59 -19 106 -83
157 -66 54 -80 59 -69 26z"/>
<path d="M7864 3625 c12 -108 93 -268 185 -366 l51 -54 -7 35 c-10 57 -60 187
-99 258 -35 65 -120 182 -131 182 -3 0 -3 -25 1 -55z"/>
<path d="M8596 2605 c20 -87 75 -240 149 -415 96 -228 155 -402 162 -481 9
-99 -21 -132 -173 -190 -53 -20 -93 -43 -114 -64 l-33 -34 35 -6 c51 -10 106
9 168 56 60 45 108 69 139 69 16 0 19 -9 23 -70 5 -87 28 -124 81 -128 41 -4
43 1 22 50 -22 55 -70 234 -116 438 -60 270 -103 411 -163 535 -50 105 -118
207 -166 250 l-21 19 7 -29z"/>
<path d="M8433 2575 c4 -11 14 -54 23 -95 20 -88 53 -130 104 -130 28 0 31 3
25 23 -21 72 -65 140 -129 197 -26 22 -28 23 -23 5z"/>
<path d="M8666 2038 c-21 -29 -20 -100 0 -169 17 -56 81 -189 108 -224 l15
-20 2 20 c4 62 -7 108 -44 190 -35 76 -41 100 -41 158 0 72 -12 85 -40 45z"/>
<path d="M6285 7198 c10 -58 35 -105 86 -157 43 -45 127 -91 167 -91 31 0 27
12 -11 31 -20 9 -53 46 -87 94 -61 88 -131 165 -150 165 -8 0 -10 -12 -5 -42z"/>
<path d="M9166 3653 c3 -16 26 -69 50 -120 58 -117 147 -207 177 -176 4 3 0
14 -9 24 -8 9 -34 59 -56 111 -45 106 -76 152 -118 173 -42 22 -51 19 -44 -12z"/>
<path d="M9090 3249 c-13 -9 -13 -11 0 -16 8 -4 58 -48 112 -100 53 -51 101
-93 107 -93 17 0 -17 78 -55 129 -60 79 -123 109 -164 80z"/>
<path d="M4580 981 c0 -234 5 -301 21 -301 9 0 22 65 43 219 14 100 14 116 1
134 -8 12 -15 42 -15 68 0 55 -16 105 -36 113 -12 5 -14 -30 -14 -233z"/>
<path d="M9978 5303 c-14 -3 -18 -15 -18 -45 0 -57 51 -108 108 -108 44 0 77
25 48 36 -9 4 -28 28 -41 55 -14 27 -34 53 -44 59 -20 10 -25 11 -53 3z"/>
</g>
</svg>
